<?xml version="1.0" standalone="no"?>
<!DOCTYPE svg PUBLIC "-//W3C//DTD SVG 20010904//EN"
 "http://www.w3.org/TR/2001/REC-SVG-20010904/DTD/svg10.dtd">
<svg version="1.0" xmlns="http://www.w3.org/2000/svg"
 width="3305.000000pt" height="3305.000000pt" viewBox="0 0 3305.000000 3305.000000"
 preserveAspectRatio="xMidYMid meet">

<g transform="translate(0.000000,3305.000000) scale(0.100000,-0.100000)"
fill="#000000" stroke="none">
<path d="M16245 23913 c-132 -4 -473 -31 -685 -54 -1408 -152 -2671 -518
-3734 -1080 -840 -445 -1659 -1020 -3336 -2343 -645 -509 -883 -682 -1064
-773 -126 -64 -406 -141 -1656 -458 -2415 -613 -3132 -835 -3712 -1151 -388
-211 -680 -425 -953 -699 -473 -474 -806 -1073 -979 -1760 -103 -410 -126
-687 -126 -1530 0 -798 34 -1493 85 -1736 32 -158 124 -317 270 -468 204 -212
462 -354 743 -410 182 -36 692 -57 1697 -70 369 -5 671 -7 673 -6 2 2 -2 153
-7 336 -14 416 -14 787 -1 944 46 558 310 1243 678 1762 622 878 1555 1427
2615 1539 189 20 590 15 772 -10 629 -87 1186 -320 1710 -715 140 -105 230
-184 378 -330 613 -602 960 -1256 1077 -2028 38 -253 44 -366 44 -888 1 -280
5 -518 9 -527 12 -24 28 -28 161 -39 297 -23 3016 -38 3686 -19 569 16 739 55
816 186 43 74 204 598 753 2464 2131 7242 2488 8438 2546 8526 25 38 82 47
250 40 249 -10 934 -82 1245 -132 655 -104 1237 -273 1825 -530 530 -232 1288
-683 1745 -1038 l135 -105 936 -1 936 0 32 71 c36 83 39 119 11 164 -83 135
-1028 808 -1815 1293 -419 259 -960 547 -1340 715 -757 334 -1567 561 -2480
697 -706 104 -1083 132 -2180 160 -335 9 -1515 11 -1760 3z m1044 -1239 c21
-4 31 -12 31 -24 0 -24 -123 -452 -400 -1390 -126 -426 -256 -872 -290 -990
-141 -492 -199 -663 -229 -679 -27 -15 -162 -30 -356 -40 -99 -6 -958 -12
-1910 -15 -951 -4 -2338 -9 -3080 -12 -1333 -6 -1351 -6 -1374 14 l-25 19 75
73 c231 227 1002 874 1364 1146 870 654 1691 1100 2580 1401 849 287 1756 439
2935 492 223 10 638 13 679 5z m-13763 -5418 c78 -21 154 -66 182 -108 22 -34
24 -46 20 -110 -4 -60 -12 -88 -48 -158 -98 -194 -243 -382 -461 -596 -288
-281 -571 -467 -774 -509 -169 -34 -962 -47 -1056 -16 -49 15 -86 55 -94 99
-8 49 17 188 43 238 64 124 252 333 424 472 119 97 288 207 409 267 225 113
637 273 930 360 254 76 329 87 425 61z"/>
<path d="M29898 23880 c-179 -4 -358 -13 -397 -19 -101 -16 -250 -66 -356
-118 -286 -144 -556 -417 -705 -713 -99 -197 -591 -1663 -946 -2815 -156 -507
-202 -612 -274 -627 -178 -37 -1320 -50 -6750 -77 l-1585 -8 -115 -58 c-218
-109 -316 -188 -390 -315 -66 -112 -84 -177 -84 -315 0 -297 109 -727 690
-2715 356 -1216 703 -2360 775 -2557 83 -225 307 -433 514 -478 147 -32 371
-36 2225 -45 1777 -8 2392 -18 2579 -41 302 -37 625 -329 681 -617 16 -78 8
-264 -14 -347 -53 -195 -170 -378 -269 -420 -81 -34 -661 -50 -2357 -65 -2912
-26 -3276 -33 -3447 -65 -94 -18 -146 -42 -263 -120 -339 -225 -520 -588 -520
-1040 0 -352 92 -593 314 -823 241 -250 492 -355 851 -356 159 0 249 13 385
56 307 98 533 292 666 572 56 119 82 216 103 389 l17 142 1457 3 c801 1 1457
-2 1457 -6 0 -29 34 -258 45 -309 35 -150 103 -299 196 -424 106 -143 323
-319 455 -368 232 -87 612 -74 832 29 214 100 427 327 533 569 50 113 85 238
110 386 35 209 69 287 254 565 257 387 367 623 433 929 25 119 26 141 26 386
0 386 -21 479 -201 865 -137 295 -156 345 -149 394 9 63 338 1087 1026 3186
203 619 563 1719 800 2445 862 2638 982 2997 1095 3264 72 171 115 219 216
240 96 21 372 31 1244 46 1161 20 1370 30 1515 71 164 47 324 181 398 334 56
114 73 185 74 305 1 195 -62 346 -201 485 -148 147 -224 173 -538 190 -252 13
-1995 20 -2405 10z m3092 -690 c0 -19 -5 -42 -10 -50 -7 -11 -10 4 -10 50 0
46 3 61 10 50 5 -8 10 -31 10 -50z m-12340 -4980 c0 -13 -70 -13 -90 0 -11 7
0 10 38 10 28 0 52 -4 52 -10z m4315 0 c4 -6 -18 -10 -59 -10 -36 0 -68 5 -71
10 -4 6 18 10 59 10 36 0 68 -4 71 -10z m1595 -89 c91 -6 178 -13 194 -17 29
-6 29 -6 23 -68 -16 -168 -200 -745 -312 -982 -49 -102 -58 -109 -168 -125
-156 -22 -929 -28 -3453 -29 l-2632 0 -27 73 c-69 183 -242 688 -286 836 -27
90 -52 190 -56 221 l-6 58 34 10 c54 17 148 24 409 32 399 12 6088 4 6280 -9z
m-915 -2580 c171 -13 217 -23 246 -54 33 -34 21 -127 -44 -352 -107 -366 -218
-647 -280 -704 -44 -40 -115 -51 -392 -62 -290 -12 -2590 -4 -3425 11 -530 10
-680 20 -748 50 -40 18 -46 27 -92 122 -102 216 -254 706 -275 885 -6 55 -5
62 13 72 39 21 179 33 467 41 456 12 4351 4 4530 -9z m-1705 -4081 c0 -5 -18
-10 -39 -10 -22 0 -43 5 -46 10 -4 6 12 10 39 10 25 0 46 -4 46 -10z m-1530
-1079 c25 -7 24 -8 -7 -15 -18 -4 -48 -4 -65 0 -32 7 -33 8 -8 15 14 4 32 7
40 7 8 0 26 -3 40 -7z"/>
<path d="M6800 15036 c-526 -67 -1005 -267 -1400 -584 -132 -106 -380 -357
-471 -477 -320 -421 -516 -891 -584 -1401 -19 -139 -21 -442 -5 -584 110 -976
679 -1799 1535 -2220 255 -125 469 -195 755 -247 134 -25 167 -27 430 -27 191
-1 315 3 375 12 621 94 1164 364 1598 796 350 349 610 796 727 1255 88 346 88
1014 0 1390 -107 454 -344 879 -689 1234 -245 253 -491 433 -796 582 -282 139
-507 211 -812 261 -135 22 -523 27 -663 10z m463 -1512 c260 -36 472 -130 669
-297 125 -107 253 -288 318 -451 104 -258 124 -589 55 -863 -83 -328 -381
-667 -714 -814 -151 -67 -261 -90 -447 -96 -180 -6 -292 8 -429 52 -368 120
-641 376 -814 762 -55 122 -77 214 -86 353 -19 317 72 622 260 871 157 210
401 380 665 464 141 44 295 50 523 19z"/>
</g>
</svg>
