<?xml version="1.0" standalone="no"?>
<!DOCTYPE svg PUBLIC "-//W3C//DTD SVG 20010904//EN"
 "http://www.w3.org/TR/2001/REC-SVG-20010904/DTD/svg10.dtd">
<svg version="1.0" xmlns="http://www.w3.org/2000/svg"
 width="1024.000000pt" height="1024.000000pt" viewBox="0 0 1024.000000 1024.000000"
 preserveAspectRatio="xMidYMid meet">

<g transform="translate(0.000000,1024.000000) scale(0.100000,-0.100000)"
fill="#000000" stroke="none">
<path d="M5000 7170 c-321 -25 -596 -89 -848 -196 -248 -107 -471 -254 -935
-621 -193 -153 -243 -188 -292 -209 -20 -8 -212 -59 -428 -113 -635 -161 -774
-209 -955 -334 -194 -134 -326 -350 -368 -606 -22 -130 -13 -640 12 -713 32
-95 132 -175 244 -196 30 -6 170 -12 310 -14 l255 -3 -2 35 c-2 19 -3 94 -4
165 -1 110 3 145 24 227 100 379 418 649 794 675 244 16 480 -75 664 -257 194
-192 277 -406 267 -686 -4 -88 -2 -136 5 -143 8 -8 177 -11 538 -11 614 0 561
-10 603 118 14 42 100 331 191 642 151 511 301 1022 496 1680 39 129 74 240
80 246 11 13 59 11 266 -12 228 -26 420 -82 613 -179 102 -51 258 -148 331
-206 l37 -29 224 0 225 0 11 24 c9 20 7 27 -16 48 -46 42 -141 111 -282 205
-428 285 -727 395 -1217 448 -166 18 -683 27 -843 15z m320 -296 c0 -3 -33
-119 -74 -257 -41 -139 -89 -301 -106 -362 -17 -60 -35 -114 -40 -118 -4 -5
-54 -10 -111 -12 -75 -2 -1368 -6 -1496 -5 -7 0 -13 4 -13 8 0 11 222 201 335
287 377 286 733 420 1215 454 143 10 290 13 290 5z m-3282 -1310 c32 -22 27
-54 -19 -123 -48 -72 -139 -157 -211 -197 -50 -27 -61 -29 -184 -32 -150 -4
-161 1 -149 65 9 51 109 148 201 196 84 43 266 107 309 107 17 0 41 -7 53 -16z"/>
<path d="M8234 7160 c-107 -22 -203 -102 -254 -213 -24 -52 -163 -470 -241
-729 -11 -37 -28 -73 -36 -80 -13 -10 -213 -14 -1012 -18 l-996 -5 -50 -25
c-34 -17 -57 -37 -73 -65 -41 -72 -32 -118 153 -749 91 -313 175 -586 185
-605 23 -46 56 -76 102 -96 32 -13 113 -15 582 -15 362 0 563 -4 598 -11 72
-15 143 -86 153 -152 10 -69 -22 -153 -69 -180 -16 -9 -196 -13 -706 -17 -678
-5 -685 -5 -725 -27 -97 -52 -150 -145 -150 -263 0 -89 23 -147 80 -205 56
-55 116 -79 200 -80 144 0 257 94 274 229 l6 51 350 0 350 0 6 -50 c11 -89 67
-168 149 -211 51 -27 162 -25 215 3 83 44 137 127 151 232 5 41 18 70 56 125
92 132 124 231 115 358 -4 66 -12 94 -46 165 -23 47 -41 90 -41 96 0 6 114
360 254 786 140 427 298 911 352 1076 71 218 104 305 121 321 22 21 33 21 347
26 305 5 326 6 368 26 115 56 120 221 8 286 -33 20 -52 21 -385 23 -192 1
-369 -2 -391 -7z m843 -172 c-3 -7 -5 -2 -5 12 0 14 2 19 5 13 2 -7 2 -19 0
-25z m-2960 -1184 c-3 -3 -12 -4 -19 -1 -8 3 -5 6 6 6 11 1 17 -2 13 -5z
m1036 -1 c-7 -2 -21 -2 -30 0 -10 3 -4 5 12 5 17 0 24 -2 18 -5z m435 -25 c11
-14 -62 -242 -87 -272 -12 -15 -81 -16 -751 -16 l-738 0 -16 43 c-59 167 -78
228 -73 242 6 13 98 15 830 15 648 0 827 -3 835 -12z m-215 -623 c13 -12 10
-28 -20 -127 -21 -68 -43 -120 -56 -131 -19 -17 -54 -17 -552 -15 -489 3 -535
4 -552 20 -22 20 -88 230 -80 252 6 14 75 16 626 16 530 0 622 -2 634 -15z
m-466 -971 c-3 -3 -12 -4 -19 -1 -8 3 -5 6 6 6 11 1 17 -2 13 -5z m-364 -261
c-7 -2 -19 -2 -25 0 -7 3 -2 5 12 5 14 0 19 -2 13 -5z"/>
<path d="M2780 5041 c-150 -22 -273 -83 -381 -191 -123 -122 -198 -300 -199
-467 -1 -384 318 -691 696 -670 288 16 538 222 609 502 19 76 19 241 -1 325
-75 320 -403 547 -724 501z m217 -386 c106 -52 168 -153 168 -275 0 -88 -22
-145 -80 -208 -142 -158 -396 -121 -495 72 -29 57 -34 77 -34 135 0 143 97
265 239 302 50 13 146 1 202 -26z"/>
</g>
</svg>
